<svg width="67" height="67" viewBox="0 0 67 67" fill="none" xmlns="http://www.w3.org/2000/svg">
<path fill-rule="evenodd" clip-rule="evenodd" d="M66.7986 19.6884C66.6355 16.1224 66.0692 13.6872 65.2411 11.5566C64.4002 9.32125 63.0814 7.29649 61.3771 5.62291C59.7041 3.91865 57.6788 2.59932 55.4435 1.75793C53.3124 0.930335 50.8777 0.364467 47.3118 0.202425C43.7392 0.0388492 42.5978 0 33.5 0C24.4022 0 23.2608 0.0388492 19.6882 0.201402C16.1223 0.364467 13.6876 0.930847 11.5565 1.75895C9.32117 2.59983 7.29643 3.91865 5.62286 5.62291C3.91862 7.29598 2.5993 9.32073 1.75791 11.5561C0.930328 13.6872 0.364464 16.1224 0.202423 19.6878C0.0388489 23.2609 0 24.4019 0 33.4997C0 42.5981 0.0388489 43.7396 0.202423 47.3122C0.364975 50.8776 0.931351 53.3128 1.75945 55.4439C2.60032 57.6788 3.91914 59.704 5.62337 61.3771C7.29643 63.0813 9.32169 64.4002 11.557 65.2411C13.6876 66.0697 16.1228 66.6355 19.6887 66.7986C23.2618 66.9617 24.4027 67 33.5005 67C42.5983 67 43.7397 66.9617 47.3123 66.7986C50.8782 66.6355 53.3129 66.0697 55.444 65.2411C59.9438 63.501 63.501 59.9438 65.2411 55.4439C66.0697 53.3128 66.6355 50.8776 66.7986 47.3122C66.9612 43.7391 67 42.5981 67 33.5003C67 24.4019 66.9612 23.2609 66.7986 19.6884ZM60.7683 47.0377C60.6196 50.3041 60.0737 52.0778 59.6151 53.2581C58.488 56.18 56.1791 58.489 53.2572 59.6161C52.0769 60.0746 50.3032 60.6206 47.0368 60.7693C43.5051 60.9308 42.4455 60.9646 33.5 60.9646C24.554 60.9646 23.4949 60.9308 19.9627 60.7693C16.6968 60.6206 14.9231 60.0746 13.7423 59.6161C12.2875 59.0789 10.9712 58.2226 9.89062 57.1098C8.7778 56.0292 7.92159 54.7134 7.38435 53.2581C6.92583 52.0778 6.37991 50.3041 6.23116 47.0377C6.07014 43.5055 6.03589 42.4458 6.03589 33.5008C6.03589 24.5552 6.07014 23.4961 6.23116 19.9634C6.38042 16.697 6.92583 14.9232 7.38435 13.7429C7.92159 12.2876 8.77831 10.9713 9.89062 9.89069C10.9712 8.77787 12.2875 7.92165 13.7428 7.38492C14.9231 6.92589 16.6968 6.38047 19.9632 6.2312C23.4954 6.07018 24.555 6.03593 33.5 6.03593C42.4445 6.03594 43.5042 6.07019 47.0368 6.23171C50.3032 6.38047 52.0764 6.9264 53.2572 7.38492C54.712 7.92216 56.0283 8.77838 57.1089 9.89069C58.2217 10.9713 59.0779 12.2876 59.6146 13.7429C60.0737 14.9232 60.6196 16.697 60.7683 19.9634C60.9294 23.4956 60.9636 24.5552 60.9636 33.5003C60.9636 42.4458 60.9299 43.5049 60.7683 47.0377ZM33.4995 16.2973C23.9989 16.2973 16.2971 23.9997 16.2971 33.5004C16.2971 43.001 23.9989 50.7029 33.4995 50.7029C43.0006 50.7029 50.7024 43.001 50.7024 33.5004C50.7024 23.9997 43.0006 16.2973 33.4995 16.2973ZM33.4995 44.6669C27.3328 44.6664 22.333 39.6671 22.3335 33.4998C22.3335 27.333 27.3328 22.3333 33.5 22.3333C39.6673 22.3338 44.6665 27.333 44.6665 33.4998C44.6665 39.6671 39.6668 44.6669 33.4995 44.6669ZM51.3822 19.6377C53.6022 19.6377 55.402 17.8378 55.402 15.6178C55.402 13.3973 53.6022 11.5974 51.3822 11.5974C49.1617 11.5974 47.3618 13.3973 47.3618 15.6178C47.3618 17.8378 49.1617 19.6377 51.3822 19.6377Z" fill="url(#paint0_linear_148_15)"/>
<defs>
<linearGradient id="paint0_linear_148_15" x1="33.5" y1="0" x2="33.5" y2="67" gradientUnits="userSpaceOnUse">
<stop stop-color="#F7D212"/>
<stop offset="1" stop-color="#F4B104"/>
</linearGradient>
</defs>
</svg>
