<svg width="67" height="42" viewBox="0 0 67 42" fill="none" xmlns="http://www.w3.org/2000/svg">
<path fill-rule="evenodd" clip-rule="evenodd" d="M28.949 17.7127C28.912 17.6826 28.8746 17.6543 28.8381 17.6267C28.5945 17.4424 28.3927 17.2898 28.6545 16.8402C32.9518 9.39516 27.6751 0.00872548 18.6202 0H1.93924C0.442822 0 0.00218137 0.436274 0 1.96323V20.3238V38.848C0 40.0936 0.508248 40.628 1.70582 40.6302C3.55319 40.6302 5.40055 40.6329 7.24792 40.6357C11.8051 40.6424 16.3622 40.6491 20.9194 40.6149C23.9756 40.6149 26.9271 39.5013 29.2216 37.4825C35.3949 32.1665 35.2575 22.8695 28.949 17.7127ZM7.5301 8.1387C7.5301 7.64352 7.6479 7.48428 8.1627 7.49737C10.026 7.50885 11.8894 7.50825 13.753 7.50764H13.7532C15.4305 7.5071 17.108 7.50655 18.786 7.51482C19.2772 7.50817 19.7648 7.59919 20.2205 7.78257C20.6762 7.96596 21.091 8.23806 21.4407 8.58307C21.7903 8.92809 22.068 9.33914 22.2575 9.79235C22.447 10.2456 22.5445 10.7319 22.5445 11.2232C22.5292 13.2278 20.8954 14.8181 18.81 14.8639H13.5747C12.9842 14.8639 12.3939 14.8617 11.8037 14.8595H11.8037C10.6236 14.8551 9.44379 14.8508 8.26304 14.8639C7.71987 14.8748 7.51046 14.7679 7.52136 14.1658C7.56717 12.1633 7.55409 10.1521 7.5301 8.1387ZM20.963 33.1437C18.5633 33.1719 16.1637 33.1685 13.764 33.165C11.886 33.1623 10.008 33.1597 8.12998 33.1721C7.66752 33.1721 7.52792 33.0434 7.53228 32.5766C7.54973 29.4223 7.5541 26.2681 7.53228 23.1116C7.53228 22.6012 7.67842 22.4747 8.17359 22.4812C9.64529 22.4972 11.117 22.4919 12.5887 22.4865C13.3245 22.4839 14.0604 22.4812 14.7962 22.4812H20.8452C23.8686 22.5008 26.2659 24.7978 26.3139 27.7165C26.327 28.4264 26.1981 29.1317 25.9348 29.7911C25.6714 30.4505 25.279 31.0506 24.7805 31.5562C24.2821 32.0617 23.6876 32.4626 23.032 32.7353C22.3764 33.0079 21.673 33.1468 20.963 33.1437ZM50.9786 1.59893H57.5097C58.6004 1.59893 58.9625 1.96759 58.9756 3.07572C58.9886 4.05298 58.9886 5.03023 58.9756 6.00749C58.9625 6.93239 58.5567 7.33812 57.6166 7.3403H44.3102C43.2828 7.3403 42.8923 6.9433 42.8771 5.90496C42.8618 4.92553 42.8596 3.94173 42.8771 2.97102C42.8945 2.0003 43.2871 1.60329 44.2818 1.59893C45.7725 1.59602 47.2603 1.59699 48.7478 1.59796H48.748C49.4915 1.59845 50.235 1.59893 50.9786 1.59893ZM66.8975 24.4618C66.9281 24.8036 66.9587 25.1455 66.9943 25.4871C67.0641 26.1525 66.486 26.8178 65.8011 26.9312C65.5037 26.968 65.204 26.9818 64.9045 26.9727H54.8506C53.9233 26.9727 52.9959 26.9743 52.0684 26.9758C49.5637 26.9802 47.0585 26.9845 44.5545 26.9574C43.7561 26.9421 43.7387 27.1755 43.9568 27.8299C45.4947 32.4523 50.3853 34.8256 54.5736 32.9605L54.6268 32.9365C55.1358 32.7065 55.6574 32.4709 56.0241 32.0683C56.6415 31.3878 57.3766 31.2961 58.2295 31.3136C59.7015 31.3435 61.1745 31.3382 62.6479 31.3329C63.2183 31.3309 63.7887 31.3289 64.3592 31.3289C65.4281 31.331 65.62 31.6822 65.1161 32.6181C62.6097 37.2775 58.788 40.146 53.5265 40.9422C46.3105 42.0328 39.3563 37.6047 36.8608 30.5588C33.9487 22.3416 38.1827 13.0533 46.1796 10.1259C54.7219 7.00002 64.0429 12.0128 66.3878 20.9783C66.6883 22.1259 66.7928 23.2931 66.8975 24.4618ZM51.5764 16.7224C48.6555 16.6766 46.4697 18.0858 44.7443 20.5093H58.0288C56.4517 18.1272 54.3663 16.766 51.5764 16.7224Z" fill="url(#paint0_linear_148_22)"/>
<defs>
<linearGradient id="paint0_linear_148_22" x1="33.5" y1="0" x2="33.5" y2="41.1067" gradientUnits="userSpaceOnUse">
<stop stop-color="#F7D212"/>
<stop offset="1" stop-color="#F4B104"/>
</linearGradient>
</defs>
</svg>
