<svg width="67" height="55" viewBox="0 0 67 55" fill="none" xmlns="http://www.w3.org/2000/svg">
<path d="M21.0709 54.4513C46.3554 54.4513 60.182 33.5041 60.182 15.3402C60.182 14.7452 60.1698 14.1527 60.1432 13.5634C62.8268 11.623 65.1598 9.20156 67 6.44534C64.5372 7.54026 61.8863 8.27686 59.106 8.60963C61.944 6.90743 64.1231 4.21561 65.1506 1.00649C62.4946 2.58089 59.5533 3.72489 56.4219 4.3429C53.9136 1.67101 50.342 0 46.3876 0C38.7967 0 32.6407 6.15601 32.6407 13.7443C32.6407 14.8234 32.7614 15.8723 32.997 16.8788C21.5724 16.3037 11.4415 10.8342 4.66238 2.51649C3.48209 4.54787 2.80121 6.90794 2.80121 9.42596C2.80121 14.1947 5.22824 18.4052 8.91837 20.868C6.66309 20.7985 4.54481 20.1794 2.69284 19.1489C2.6908 19.2067 2.6908 19.2629 2.6908 19.3242C2.6908 25.9817 7.42883 31.5402 13.7193 32.7997C12.564 33.1141 11.3485 33.2833 10.0946 33.2833C9.21025 33.2833 8.34842 33.1964 7.51061 33.0353C9.26086 38.4972 14.3357 42.4715 20.3522 42.583C15.6474 46.2705 9.7204 48.467 3.27915 48.467C2.17094 48.467 1.07601 48.4037 0 48.2769C6.08343 52.1761 13.3078 54.4518 21.0714 54.4518" fill="url(#paint0_linear_148_14)"/>
<defs>
<linearGradient id="paint0_linear_148_14" x1="33.5" y1="0" x2="33.5" y2="54.4518" gradientUnits="userSpaceOnUse">
<stop stop-color="#F7D212"/>
<stop offset="1" stop-color="#F4B104"/>
</linearGradient>
</defs>
</svg>
