<svg width="22" height="19" viewBox="0 0 22 19" fill="none" xmlns="http://www.w3.org/2000/svg">
<path d="M20 0.544398C18.89 0.163319 17.67 0 16.5 0C14.55 0 12.45 0.435518 11 1.63319C9.55 0.435518 7.45 0 5.5 0C3.55 0 1.45 0.435518 0 1.63319V17.584C0 17.8562 0.25 18.1284 0.5 18.1284C0.6 18.1284 0.65 18.074 0.75 18.074C2.1 17.3663 4.05 16.8763 5.5 16.8763C7.45 16.8763 9.55 17.3118 11 18.5095C12.35 17.584 14.8 16.8763 16.5 16.8763C18.15 16.8763 19.85 17.203 21.25 18.0196C21.35 18.074 21.4 18.074 21.5 18.074C21.75 18.074 22 17.8018 22 17.5296V1.63319C21.4 1.14324 20.75 0.816597 20 0.544398ZM20 15.2431C18.9 14.8621 17.7 14.6987 16.5 14.6987C14.8 14.6987 12.35 15.4065 11 16.3319V3.81078C12.35 2.88531 14.8 2.17759 16.5 2.17759C17.7 2.17759 18.9 2.34091 20 2.72199V15.2431Z" fill="url(#paint0_linear_31_79)"/>
<path d="M16.5 7.05445C17.38 7.05445 18.23 7.13066 19 7.27463V5.98742C18.21 5.8604 17.36 5.78418 16.5 5.78418C14.8 5.78418 13.26 6.02976 12 6.48706V7.89282C13.13 7.35084 14.7 7.05445 16.5 7.05445Z" fill="url(#paint1_linear_31_79)"/>
<path d="M12 8.73975V10.1455C13.13 9.60353 14.7 9.30713 16.5 9.30713C17.38 9.30713 18.23 9.38335 19 9.52731V8.24011C18.21 8.11308 17.36 8.03687 16.5 8.03687C14.8 8.03687 13.26 8.29092 12 8.73975Z" fill="url(#paint2_linear_31_79)"/>
<path d="M16.5 10.2979C14.8 10.2979 13.26 10.5434 12 11.0007V12.4065C13.13 11.8645 14.7 11.5681 16.5 11.5681C17.38 11.5681 18.23 11.6443 19 11.7883V10.5011C18.21 10.3656 17.36 10.2979 16.5 10.2979Z" fill="url(#paint3_linear_31_79)"/>
<defs>
<linearGradient id="paint0_linear_31_79" x1="11" y1="0" x2="11" y2="18.5095" gradientUnits="userSpaceOnUse">
<stop stop-color="#F7D212"/>
<stop offset="1" stop-color="#F4B104"/>
</linearGradient>
<linearGradient id="paint1_linear_31_79" x1="15.5" y1="5.78418" x2="15.5" y2="7.89282" gradientUnits="userSpaceOnUse">
<stop stop-color="#F7D212"/>
<stop offset="1" stop-color="#F4B104"/>
</linearGradient>
<linearGradient id="paint2_linear_31_79" x1="15.5" y1="8.03687" x2="15.5" y2="10.1455" gradientUnits="userSpaceOnUse">
<stop stop-color="#F7D212"/>
<stop offset="1" stop-color="#F4B104"/>
</linearGradient>
<linearGradient id="paint3_linear_31_79" x1="15.5" y1="10.2979" x2="15.5" y2="12.4065" gradientUnits="userSpaceOnUse">
<stop stop-color="#F7D212"/>
<stop offset="1" stop-color="#F4B104"/>
</linearGradient>
</defs>
</svg>
