<svg width="254" height="44" viewBox="0 0 254 44" fill="none" xmlns="http://www.w3.org/2000/svg">
<path d="M31.8525 9.882V36H27.0825V19.962C27.0825 19.626 27.0885 19.266 27.1005 18.882C27.1245 18.498 27.1605 18.108 27.2085 17.712L19.7385 31.878C19.3305 32.658 18.7005 33.048 17.8485 33.048H17.0925C16.6725 33.048 16.3005 32.952 15.9765 32.76C15.6525 32.556 15.3945 32.262 15.2025 31.878L7.69648 17.658C7.73248 18.078 7.76248 18.486 7.78648 18.882C7.81048 19.266 7.82248 19.626 7.82248 19.962V36H3.05248V9.882H7.15648C7.38448 9.882 7.58848 9.888 7.76848 9.9C7.94848 9.912 8.10448 9.948 8.23648 10.008C8.38048 10.056 8.50648 10.14 8.61448 10.26C8.73448 10.368 8.84848 10.524 8.95648 10.728L16.2645 24.66C16.4925 25.08 16.7025 25.512 16.8945 25.956C17.0985 26.4 17.2905 26.856 17.4705 27.324C17.6505 26.844 17.8365 26.376 18.0285 25.92C18.2325 25.464 18.4485 25.026 18.6765 24.606L25.9305 10.728C26.0385 10.524 26.1525 10.368 26.2725 10.26C26.3925 10.14 26.5185 10.056 26.6505 10.008C26.7945 9.948 26.9505 9.912 27.1185 9.9C27.2985 9.888 27.5085 9.882 27.7485 9.882H31.8525ZM51.4427 26.082L48.6167 18.09C48.4487 17.67 48.2687 17.178 48.0767 16.614C47.8967 16.05 47.7227 15.438 47.5547 14.778C47.3867 15.45 47.2067 16.074 47.0147 16.65C46.8347 17.214 46.6607 17.706 46.4927 18.126L43.6847 26.082H51.4427ZM60.5147 36H56.3207C55.8527 36 55.4687 35.892 55.1687 35.676C54.8807 35.448 54.6647 35.16 54.5207 34.812L52.7567 29.826H42.3527L40.5887 34.812C40.4687 35.112 40.2587 35.388 39.9587 35.64C39.6587 35.88 39.2807 36 38.8247 36H34.5947L44.8007 9.882H50.3267L60.5147 36ZM71.464 22.248C72.34 22.248 73.096 22.14 73.732 21.924C74.368 21.696 74.89 21.39 75.298 21.006C75.706 20.61 76.006 20.148 76.198 19.62C76.39 19.092 76.486 18.516 76.486 17.892C76.486 16.656 76.072 15.696 75.244 15.012C74.428 14.328 73.18 13.986 71.5 13.986H68.692V22.248H71.464ZM84.118 36H79.24C78.328 36 77.668 35.652 77.26 34.956L72.292 26.946C72.088 26.634 71.86 26.406 71.608 26.262C71.368 26.118 71.008 26.046 70.528 26.046H68.692V36H63.292V9.882H71.5C73.324 9.882 74.884 10.074 76.18 10.458C77.476 10.83 78.538 11.352 79.366 12.024C80.194 12.696 80.8 13.5 81.184 14.436C81.568 15.36 81.76 16.38 81.76 17.496C81.76 18.36 81.634 19.182 81.382 19.962C81.142 20.73 80.788 21.432 80.32 22.068C79.852 22.704 79.276 23.268 78.592 23.76C77.908 24.252 77.128 24.648 76.252 24.948C76.6 25.14 76.924 25.374 77.224 25.65C77.524 25.914 77.794 26.232 78.034 26.604L84.118 36ZM101.179 14.886C101.011 15.162 100.837 15.366 100.657 15.498C100.489 15.618 100.267 15.678 99.9909 15.678C99.7269 15.678 99.4389 15.588 99.1269 15.408C98.8269 15.216 98.4729 15.012 98.0649 14.796C97.6569 14.58 97.1889 14.382 96.6609 14.202C96.1329 14.01 95.5149 13.914 94.8069 13.914C93.5589 13.914 92.6229 14.196 91.9989 14.76C91.3749 15.312 91.0629 16.038 91.0629 16.938C91.0629 17.514 91.2309 17.994 91.5669 18.378C91.9149 18.75 92.3649 19.074 92.9169 19.35C93.4809 19.626 94.1169 19.872 94.8249 20.088C95.5329 20.304 96.2589 20.544 97.0029 20.808C97.7469 21.06 98.4729 21.36 99.1809 21.708C99.8889 22.056 100.519 22.494 101.071 23.022C101.635 23.55 102.085 24.198 102.421 24.966C102.769 25.722 102.943 26.646 102.943 27.738C102.943 28.926 102.733 30.042 102.313 31.086C101.905 32.118 101.311 33.024 100.531 33.804C99.7509 34.572 98.7849 35.178 97.6329 35.622C96.4929 36.066 95.1969 36.288 93.7449 36.288C92.9169 36.288 92.0889 36.204 91.2609 36.036C90.4449 35.868 89.6529 35.634 88.8849 35.334C88.1289 35.034 87.4149 34.674 86.7429 34.254C86.0709 33.834 85.4829 33.366 84.9789 32.85L86.5629 30.294C86.6949 30.102 86.8689 29.946 87.0849 29.826C87.3009 29.694 87.5289 29.628 87.7689 29.628C88.0929 29.628 88.4349 29.748 88.7949 29.988C89.1549 30.228 89.5689 30.492 90.0369 30.78C90.5049 31.068 91.0449 31.332 91.6569 31.572C92.2809 31.812 93.0249 31.932 93.8889 31.932C95.1489 31.932 96.1209 31.644 96.8049 31.068C97.5009 30.492 97.8489 29.634 97.8489 28.494C97.8489 27.834 97.6749 27.3 97.3269 26.892C96.9909 26.484 96.5469 26.142 95.9949 25.866C95.4429 25.59 94.8129 25.356 94.1049 25.164C93.3969 24.96 92.6709 24.738 91.9269 24.498C91.1829 24.258 90.4569 23.97 89.7489 23.634C89.0409 23.298 88.4109 22.854 87.8589 22.302C87.3069 21.75 86.8569 21.066 86.5089 20.25C86.1729 19.434 86.0049 18.42 86.0049 17.208C86.0049 16.236 86.1969 15.294 86.5809 14.382C86.9649 13.47 87.5289 12.66 88.2729 11.952C89.0169 11.244 89.9289 10.674 91.0089 10.242C92.1009 9.81 93.3489 9.594 94.7529 9.594C96.3249 9.594 97.7769 9.84 99.1089 10.332C100.453 10.812 101.587 11.484 102.511 12.348L101.179 14.886ZM117.911 31.68C118.787 31.68 119.573 31.536 120.269 31.248C120.965 30.948 121.553 30.528 122.033 29.988C122.513 29.448 122.879 28.794 123.131 28.026C123.383 27.258 123.509 26.394 123.509 25.434V9.882H128.909V25.434C128.909 27.018 128.651 28.476 128.135 29.808C127.631 31.128 126.905 32.268 125.957 33.228C125.009 34.188 123.857 34.938 122.501 35.478C121.145 36.018 119.615 36.288 117.911 36.288C116.207 36.288 114.671 36.018 113.303 35.478C111.947 34.938 110.795 34.188 109.847 33.228C108.899 32.268 108.167 31.128 107.651 29.808C107.147 28.476 106.895 27.018 106.895 25.434V9.882H112.295V25.434C112.295 26.394 112.421 27.258 112.673 28.026C112.925 28.794 113.291 29.448 113.771 29.988C114.251 30.528 114.839 30.948 115.535 31.248C116.231 31.536 117.023 31.68 117.911 31.68ZM142.575 22.248C143.451 22.248 144.207 22.14 144.843 21.924C145.479 21.696 146.001 21.39 146.409 21.006C146.817 20.61 147.117 20.148 147.309 19.62C147.501 19.092 147.597 18.516 147.597 17.892C147.597 16.656 147.183 15.696 146.355 15.012C145.539 14.328 144.291 13.986 142.611 13.986H139.803V22.248H142.575ZM155.229 36H150.351C149.439 36 148.779 35.652 148.371 34.956L143.403 26.946C143.199 26.634 142.971 26.406 142.719 26.262C142.479 26.118 142.119 26.046 141.639 26.046H139.803V36H134.403V9.882H142.611C144.435 9.882 145.995 10.074 147.291 10.458C148.587 10.83 149.649 11.352 150.477 12.024C151.305 12.696 151.911 13.5 152.295 14.436C152.679 15.36 152.871 16.38 152.871 17.496C152.871 18.36 152.745 19.182 152.493 19.962C152.253 20.73 151.899 21.432 151.431 22.068C150.963 22.704 150.387 23.268 149.703 23.76C149.019 24.252 148.239 24.648 147.363 24.948C147.711 25.14 148.035 25.374 148.335 25.65C148.635 25.914 148.905 26.232 149.145 26.604L155.229 36ZM171.93 26.082L169.104 18.09C168.936 17.67 168.756 17.178 168.564 16.614C168.384 16.05 168.21 15.438 168.042 14.778C167.874 15.45 167.694 16.074 167.502 16.65C167.322 17.214 167.148 17.706 166.98 18.126L164.172 26.082H171.93ZM181.002 36H176.808C176.34 36 175.956 35.892 175.656 35.676C175.368 35.448 175.152 35.16 175.008 34.812L173.244 29.826H162.84L161.076 34.812C160.956 35.112 160.746 35.388 160.446 35.64C160.146 35.88 159.768 36 159.312 36H155.082L165.288 9.882H170.814L181.002 36Z" fill="#131313"/>
<path d="M185.193 38.856C185.153 38.824 185.125 38.792 185.109 38.76C185.101 38.728 185.097 38.692 185.097 38.652C185.097 38.604 185.129 38.54 185.193 38.46C185.265 38.38 185.361 38.26 185.481 38.1C185.609 37.948 185.737 37.764 185.865 37.548C186.001 37.34 186.121 37.104 186.225 36.84C186.337 36.576 186.409 36.292 186.441 35.988C186.321 36.028 186.197 36.048 186.069 36.048C185.773 36.048 185.529 35.948 185.337 35.748C185.153 35.548 185.061 35.292 185.061 34.98C185.061 34.7 185.157 34.46 185.349 34.26C185.541 34.06 185.793 33.96 186.105 33.96C186.449 33.96 186.713 34.08 186.897 34.32C187.089 34.552 187.185 34.86 187.185 35.244C187.185 35.572 187.141 35.904 187.053 36.24C186.973 36.584 186.853 36.92 186.693 37.248C186.533 37.576 186.341 37.892 186.117 38.196C185.893 38.5 185.645 38.78 185.373 39.036L185.193 38.856ZM198.386 36V25.308L196.706 25.2C196.482 25.176 196.37 25.076 196.37 24.9V24.432H198.386V22.92C198.386 22.24 198.474 21.644 198.65 21.132C198.826 20.612 199.074 20.18 199.394 19.836C199.714 19.492 200.098 19.236 200.546 19.068C200.994 18.892 201.49 18.804 202.034 18.804C202.282 18.804 202.53 18.828 202.778 18.876C203.034 18.916 203.262 18.976 203.462 19.056L203.426 19.608C203.41 19.68 203.374 19.728 203.318 19.752C203.27 19.768 203.198 19.776 203.102 19.776C203.006 19.768 202.882 19.756 202.73 19.74C202.578 19.716 202.402 19.704 202.202 19.704C201.81 19.704 201.446 19.764 201.11 19.884C200.782 19.996 200.498 20.18 200.258 20.436C200.018 20.692 199.83 21.028 199.694 21.444C199.566 21.852 199.502 22.356 199.502 22.956V24.432H203.378V25.284H199.538V36H198.386ZM214.005 28.824C214.005 28.184 213.913 27.612 213.729 27.108C213.553 26.596 213.301 26.164 212.973 25.812C212.645 25.46 212.253 25.192 211.797 25.008C211.349 24.816 210.853 24.72 210.309 24.72C209.693 24.72 209.141 24.816 208.653 25.008C208.165 25.2 207.741 25.476 207.381 25.836C207.029 26.196 206.745 26.628 206.529 27.132C206.313 27.636 206.169 28.2 206.097 28.824H214.005ZM206.037 29.556V29.784C206.037 30.68 206.141 31.468 206.349 32.148C206.557 32.828 206.853 33.4 207.237 33.864C207.621 34.32 208.085 34.664 208.629 34.896C209.173 35.128 209.781 35.244 210.453 35.244C211.053 35.244 211.573 35.18 212.013 35.052C212.453 34.916 212.821 34.768 213.117 34.608C213.421 34.44 213.661 34.292 213.837 34.164C214.013 34.028 214.141 33.96 214.221 33.96C214.325 33.96 214.405 34 214.461 34.08L214.773 34.464C214.581 34.704 214.325 34.928 214.005 35.136C213.693 35.344 213.341 35.524 212.949 35.676C212.565 35.82 212.149 35.936 211.701 36.024C211.261 36.112 210.817 36.156 210.369 36.156C209.553 36.156 208.809 36.016 208.137 35.736C207.465 35.448 206.889 35.032 206.409 34.488C205.929 33.944 205.557 33.28 205.293 32.496C205.037 31.704 204.909 30.8 204.909 29.784C204.909 28.928 205.029 28.14 205.269 27.42C205.517 26.692 205.869 26.068 206.325 25.548C206.789 25.02 207.353 24.608 208.017 24.312C208.689 24.016 209.449 23.868 210.297 23.868C210.969 23.868 211.593 23.984 212.169 24.216C212.745 24.448 213.245 24.788 213.669 25.236C214.093 25.676 214.425 26.22 214.665 26.868C214.913 27.516 215.037 28.26 215.037 29.1C215.037 29.276 215.013 29.396 214.965 29.46C214.917 29.524 214.837 29.556 214.725 29.556H206.037ZM219.645 18.54V36H218.493V18.54H219.645ZM225.194 24.06V36H224.054V24.06H225.194ZM225.686 19.944C225.686 20.088 225.654 20.224 225.59 20.352C225.534 20.472 225.458 20.58 225.362 20.676C225.266 20.772 225.154 20.848 225.026 20.904C224.898 20.96 224.762 20.988 224.618 20.988C224.474 20.988 224.338 20.96 224.21 20.904C224.082 20.848 223.97 20.772 223.874 20.676C223.778 20.58 223.702 20.472 223.646 20.352C223.59 20.224 223.562 20.088 223.562 19.944C223.562 19.8 223.59 19.664 223.646 19.536C223.702 19.4 223.778 19.284 223.874 19.188C223.97 19.092 224.082 19.016 224.21 18.96C224.338 18.904 224.474 18.876 224.618 18.876C224.762 18.876 224.898 18.904 225.026 18.96C225.154 19.016 225.266 19.092 225.362 19.188C225.458 19.284 225.534 19.4 225.59 19.536C225.654 19.664 225.686 19.8 225.686 19.944ZM230.657 33.396C230.889 33.74 231.129 34.032 231.377 34.272C231.633 34.504 231.901 34.696 232.181 34.848C232.461 34.992 232.757 35.096 233.069 35.16C233.389 35.224 233.725 35.256 234.077 35.256C234.781 35.256 235.397 35.128 235.925 34.872C236.453 34.616 236.893 34.256 237.245 33.792C237.605 33.32 237.873 32.76 238.049 32.112C238.233 31.456 238.325 30.736 238.325 29.952C238.325 28.176 237.997 26.872 237.341 26.04C236.685 25.2 235.745 24.78 234.521 24.78C233.729 24.78 233.013 24.984 232.373 25.392C231.733 25.8 231.161 26.368 230.657 27.096V33.396ZM230.609 26.208C231.137 25.488 231.753 24.916 232.457 24.492C233.169 24.068 233.965 23.856 234.845 23.856C236.309 23.856 237.449 24.364 238.265 25.38C239.089 26.396 239.501 27.92 239.501 29.952C239.501 30.824 239.385 31.64 239.153 32.4C238.929 33.152 238.593 33.808 238.145 34.368C237.705 34.92 237.161 35.356 236.513 35.676C235.873 35.996 235.133 36.156 234.293 36.156C233.485 36.156 232.785 36.008 232.193 35.712C231.601 35.416 231.089 34.98 230.657 34.404V40.224H229.505V24.06H230.141C230.341 24.06 230.457 24.16 230.489 24.36L230.609 26.208ZM251.364 28.824C251.364 28.184 251.272 27.612 251.088 27.108C250.912 26.596 250.66 26.164 250.332 25.812C250.004 25.46 249.612 25.192 249.156 25.008C248.708 24.816 248.212 24.72 247.668 24.72C247.052 24.72 246.5 24.816 246.012 25.008C245.524 25.2 245.1 25.476 244.74 25.836C244.388 26.196 244.104 26.628 243.888 27.132C243.672 27.636 243.528 28.2 243.456 28.824H251.364ZM243.396 29.556V29.784C243.396 30.68 243.5 31.468 243.708 32.148C243.916 32.828 244.212 33.4 244.596 33.864C244.98 34.32 245.444 34.664 245.988 34.896C246.532 35.128 247.14 35.244 247.812 35.244C248.412 35.244 248.932 35.18 249.372 35.052C249.812 34.916 250.18 34.768 250.476 34.608C250.78 34.44 251.02 34.292 251.196 34.164C251.372 34.028 251.5 33.96 251.58 33.96C251.684 33.96 251.764 34 251.82 34.08L252.132 34.464C251.94 34.704 251.684 34.928 251.364 35.136C251.052 35.344 250.7 35.524 250.308 35.676C249.924 35.82 249.508 35.936 249.06 36.024C248.62 36.112 248.176 36.156 247.728 36.156C246.912 36.156 246.168 36.016 245.496 35.736C244.824 35.448 244.248 35.032 243.768 34.488C243.288 33.944 242.916 33.28 242.652 32.496C242.396 31.704 242.268 30.8 242.268 29.784C242.268 28.928 242.388 28.14 242.628 27.42C242.876 26.692 243.228 26.068 243.684 25.548C244.148 25.02 244.712 24.608 245.376 24.312C246.048 24.016 246.808 23.868 247.656 23.868C248.328 23.868 248.952 23.984 249.528 24.216C250.104 24.448 250.604 24.788 251.028 25.236C251.452 25.676 251.784 26.22 252.024 26.868C252.272 27.516 252.396 28.26 252.396 29.1C252.396 29.276 252.372 29.396 252.324 29.46C252.276 29.524 252.196 29.556 252.084 29.556H243.396Z" fill="#3C3C3C"/>
</svg>
